<svg width="21" height="20" viewBox="0 0 21 20" fill="none" xmlns="http://www.w3.org/2000/svg">
<path d="M17.6667 3.41691V5.25024C17.6667 5.91691 17.25 6.75024 16.8333 7.16691L13.25 10.3336C12.75 10.7502 12.4167 11.5836 12.4167 12.2502V15.8336C12.4167 16.3336 12.0833 17.0002 11.6667 17.2502L10.5 18.0002C9.41667 18.6669 7.91667 17.9169 7.91667 16.5836L7.91667 12.1669C7.91667 11.5836 7.58334 10.8336 7.25001 10.4169L6.85834 10.0086C6.60001 9.73358 6.55001 9.31691 6.75834 8.99191L11.025 2.14191C11.175 1.90024 11.4417 1.75024 11.7333 1.75024L16 1.75024C16.9167 1.75024 17.6667 2.50024 17.6667 3.41691Z" fill="#009899"/>
<path d="M9.12501 3.02524L6.16668 7.76691C5.88334 8.22524 5.23334 8.29191 4.85834 7.90024L4.08334 7.08358C3.66668 6.66691 3.33334 5.91691 3.33334 5.41691V3.50024C3.33334 2.50024 4.08334 1.75024 5.00001 1.75024L8.41668 1.75024C9.06668 1.75024 9.46668 2.46691 9.12501 3.02524Z" fill="#009899"/>
</svg>
