<svg width="21" height="20" viewBox="0 0 21 20" fill="none" xmlns="http://www.w3.org/2000/svg">
<path d="M18.9429 10.0003C18.9429 5.4086 15.2012 1.66693 10.6095 1.66693C6.01787 1.66693 2.2762 5.4086 2.2762 10.0003C2.2762 14.5919 6.01787 18.3336 10.6095 18.3336C15.2012 18.3336 18.9429 14.5919 18.9429 10.0003ZM9.7762 6.66693C9.7762 6.20026 10.1512 5.8336 10.6095 5.8336C11.0679 5.8336 11.4429 6.2086 11.4429 6.66693C11.4429 7.12526 11.0679 7.50026 10.6095 7.50026C10.1512 7.50026 9.7762 7.1336 9.7762 6.66693ZM9.7762 10.0003C9.7762 9.5336 10.1512 9.16693 10.6095 9.16693C11.0679 9.16693 11.4429 9.54193 11.4429 10.0003C11.4429 10.4586 11.0679 10.8336 10.6095 10.8336C10.1512 10.8336 9.7762 10.4669 9.7762 10.0003ZM9.7762 13.3336C9.7762 12.8669 10.1512 12.5003 10.6095 12.5003C11.0679 12.5003 11.4429 12.8753 11.4429 13.3336C11.4429 13.7919 11.0679 14.1669 10.6095 14.1669C10.1512 14.1669 9.7762 13.8003 9.7762 13.3336Z" fill="#292D32"/>
</svg>
